<?xml version="1.0" encoding="utf-8"?>
<!-- Generator: Adobe Illustrator 23.0.5, SVG Export Plug-In . SVG Version: 6.00 Build 0)  -->
<svg version="1.1" id="Capa_1" xmlns="http://www.w3.org/2000/svg" xmlns:xlink="http://www.w3.org/1999/xlink" x="0px" y="0px"
	 viewBox="0 0 425.2 196" style="enable-background:new 0 0 425.2 196;" xml:space="preserve">
<style type="text/css">
	.st0{fill:#1D1D1B;}
	.st1{fill:#EB5199;}
	.st2{fill:#FFFFFF;}
</style>
<rect x="-11.4" y="-6.9" class="st0" width="445.1" height="208.6"/>
<path class="st1" d="M39.3,35.6v58V105v58h355.9v-58V93.6v-58H39.3z M393.2,93.6H41.3v-56h351.9V93.6z"/>
<g>
	<path class="st2" d="M54.2,78.3c-1.6-0.8-2.9-1.9-3.8-3.3c-0.9-1.4-1.3-3.1-1.3-4.9c0-2.5,0.6-4.6,1.7-6.5c1.1-1.9,2.7-3.4,4.7-4.5
		c2-1.1,4.3-1.6,6.9-1.6c2,0,3.8,0.4,5.4,1.1c1.6,0.7,2.7,1.8,3.5,3.1l-5.1,4c-0.9-1.6-2.3-2.5-4.2-2.5c-1.1,0-2.1,0.3-3,0.8
		c-0.9,0.5-1.5,1.3-2,2.3c-0.5,1-0.7,2.1-0.7,3.3c0,1.2,0.4,2.2,1.2,3c0.8,0.8,1.8,1.1,3.1,1.1c1.8,0,3.4-0.8,4.7-2.4l4.2,4
		c-1.2,1.5-2.6,2.6-4.2,3.2c-1.6,0.6-3.4,1-5.4,1C57.7,79.5,55.8,79.1,54.2,78.3"/>
	<path class="st2" d="M76,78.3c-1.6-0.8-2.9-1.9-3.7-3.3c-0.9-1.4-1.3-3.1-1.3-4.9c0-2.5,0.6-4.6,1.7-6.6c1.1-1.9,2.7-3.4,4.7-4.5
		s4.3-1.6,6.9-1.6c2.1,0,4,0.4,5.6,1.2c1.6,0.8,2.9,1.9,3.7,3.3c0.9,1.4,1.3,3.1,1.3,4.9c0,2.4-0.6,4.6-1.7,6.5
		c-1.1,1.9-2.7,3.4-4.7,4.5c-2,1.1-4.3,1.6-6.9,1.6C79.5,79.5,77.6,79.1,76,78.3 M85.2,72.9c0.8-0.6,1.5-1.4,1.9-2.3
		c0.4-1,0.7-2.1,0.7-3.2c0-1.2-0.4-2.2-1.1-3c-0.7-0.7-1.7-1.1-3-1.1c-1.1,0-2.1,0.3-2.9,0.9c-0.8,0.6-1.5,1.4-1.9,2.3
		c-0.4,1-0.7,2.1-0.7,3.2c0,1.2,0.4,2.2,1.1,3c0.7,0.7,1.7,1.1,3,1.1C83.4,73.7,84.4,73.4,85.2,72.9"/>
	<polygon class="st2" points="120.4,57.9 116.1,79 110.3,79 104.2,69.2 102.3,79 95.4,79 99.6,57.9 105.4,57.9 111.5,67.7 
		113.4,57.9 	"/>
	<path class="st2" d="M122.8,78.9c-1.6-0.4-2.9-0.9-4-1.6l2.7-5.2c2.3,1.3,4.6,2,7.1,2c0.9,0,1.6-0.1,2.1-0.3
		c0.5-0.2,0.7-0.5,0.7-0.9c0-0.4-0.3-0.7-0.7-0.9c-0.5-0.2-1.3-0.5-2.3-0.7c-1.4-0.4-2.6-0.7-3.5-1.1s-1.7-0.9-2.4-1.7
		c-0.7-0.8-1-1.8-1-3.1c0-1.6,0.4-3,1.3-4.2c0.9-1.2,2.1-2.1,3.7-2.8c1.6-0.7,3.5-1,5.7-1c1.6,0,3,0.2,4.4,0.5
		c1.4,0.3,2.5,0.8,3.5,1.3l-2.6,5.2c-0.8-0.5-1.7-0.9-2.7-1.2c-1-0.3-2-0.4-3.1-0.4c-1,0-1.7,0.1-2.3,0.4c-0.5,0.3-0.8,0.6-0.8,1
		c0,0.4,0.2,0.7,0.7,0.9c0.5,0.2,1.3,0.5,2.4,0.7c1.4,0.3,2.5,0.7,3.4,1c0.9,0.4,1.7,0.9,2.4,1.7c0.7,0.8,1,1.8,1,3
		c0,1.6-0.4,2.9-1.3,4.1s-2.1,2.1-3.7,2.8c-1.6,0.7-3.5,1-5.7,1C126.1,79.5,124.4,79.3,122.8,78.9"/>
	<path class="st2" d="M145.1,78.5c-1.4-0.6-2.4-1.5-3.2-2.7c-0.7-1.2-1.1-2.5-1.1-4.1c0-0.6,0.1-1.4,0.2-2.2l2.3-11.6h7.1l-2.3,11.5
		c-0.1,0.6-0.2,1.1-0.2,1.5c0,0.9,0.2,1.6,0.7,2.1c0.5,0.5,1.2,0.7,2.1,0.7c1,0,1.9-0.3,2.4-1c0.6-0.7,1-1.8,1.4-3.3l2.3-11.5h7
		l-2.4,11.9c-0.6,3.2-1.9,5.6-3.9,7.2c-1.9,1.6-4.5,2.4-7.7,2.4C148.1,79.5,146.5,79.2,145.1,78.5"/>
	<polygon class="st2" points="173.1,63.3 172.6,65.8 181.5,65.8 180.5,70.9 171.6,70.9 171,73.6 181.6,73.6 180.5,79 163,79 
		167.2,57.9 184.3,57.9 183.3,63.3 	"/>
	<polygon class="st2" points="187.5,57.9 194.6,57.9 191.5,73.5 201,73.5 199.9,79 183.3,79 	"/>
	<path class="st2" d="M207.8,78.3c-1.6-0.8-2.9-1.9-3.7-3.3c-0.9-1.4-1.3-3.1-1.3-4.9c0-2.5,0.6-4.6,1.7-6.6
		c1.1-1.9,2.7-3.4,4.7-4.5c2-1.1,4.3-1.6,6.9-1.6c2.1,0,4,0.4,5.6,1.2c1.6,0.8,2.9,1.9,3.7,3.3c0.9,1.4,1.3,3.1,1.3,4.9
		c0,2.4-0.6,4.6-1.7,6.5c-1.1,1.9-2.7,3.4-4.7,4.5c-2,1.1-4.3,1.6-6.9,1.6C211.3,79.5,209.4,79.1,207.8,78.3 M217,72.9
		c0.8-0.6,1.5-1.4,1.9-2.3c0.4-1,0.7-2.1,0.7-3.2c0-1.2-0.4-2.2-1.1-3c-0.7-0.7-1.7-1.1-3-1.1c-1.1,0-2.1,0.3-2.9,0.9
		c-0.8,0.6-1.5,1.4-1.9,2.3s-0.7,2.1-0.7,3.2c0,1.2,0.4,2.2,1.1,3c0.7,0.7,1.7,1.1,3,1.1C215.1,73.7,216.1,73.4,217,72.9"/>
	<polygon class="st2" points="261.1,57.9 256.9,79 251.1,79 245,69.2 243.1,79 236.1,79 240.3,57.9 246.2,57.9 252.2,67.7 
		254.2,57.9 	"/>
	<path class="st2" d="M275.7,75.3h-8l-2.1,3.7h-7.5l13.4-21.1h7l5,21.1h-7.1L275.7,75.3z M274.7,70.2l-1-5.4l-3.1,5.4H274.7z"/>
	<path class="st2" d="M304.7,59.8c1.5,1.2,2.3,2.9,2.3,5.1c0,1.8-0.4,3.3-1.3,4.7c-0.9,1.3-2.1,2.4-3.7,3.1
		c-1.6,0.7-3.5,1.1-5.6,1.1h-3.6l-1,5.2h-7.1l4.2-21.1h9.4C301,57.9,303.2,58.5,304.7,59.8 M299.1,67.6c0.5-0.5,0.8-1.2,0.8-2.1
		c0-1.4-0.9-2.1-2.7-2.1h-2.4l-1,4.9h2.9C297.7,68.3,298.5,68.1,299.1,67.6"/>
	<path class="st2" d="M321,75.3h-8l-2.1,3.7h-7.5l13.4-21.1h7l5,21.1h-7.1L321,75.3z M320,70.2l-1-5.4l-3.1,5.4H320z"/>
	<polygon class="st2" points="334.2,57.9 341.3,57.9 337,79 329.9,79 	"/>
	<path class="st2" d="M346.8,78.3c-1.6-0.8-2.9-1.9-3.8-3.3c-0.9-1.4-1.3-3.1-1.3-4.9c0-2.5,0.6-4.6,1.7-6.5
		c1.1-1.9,2.7-3.4,4.7-4.5s4.3-1.6,6.9-1.6c2,0,3.8,0.4,5.4,1.1c1.6,0.7,2.7,1.8,3.5,3.1l-5.1,4c-0.9-1.6-2.3-2.5-4.2-2.5
		c-1.1,0-2.1,0.3-3,0.8c-0.9,0.5-1.5,1.3-2,2.3c-0.5,1-0.7,2.1-0.7,3.3c0,1.2,0.4,2.2,1.2,3c0.8,0.8,1.8,1.1,3.1,1.1
		c1.8,0,3.4-0.8,4.7-2.4l4.2,4c-1.2,1.5-2.6,2.6-4.2,3.2c-1.6,0.6-3.4,1-5.4,1C350.3,79.5,348.4,79.1,346.8,78.3"/>
	<path class="st2" d="M368.7,78.3c-1.6-0.8-2.9-1.9-3.7-3.3c-0.9-1.4-1.3-3.1-1.3-4.9c0-2.5,0.6-4.6,1.7-6.6
		c1.1-1.9,2.7-3.4,4.7-4.5s4.3-1.6,6.9-1.6c2.1,0,4,0.4,5.6,1.2c1.6,0.8,2.9,1.9,3.7,3.3c0.9,1.4,1.3,3.1,1.3,4.9
		c0,2.4-0.6,4.6-1.7,6.5c-1.1,1.9-2.7,3.4-4.7,4.5c-2,1.1-4.3,1.6-6.9,1.6C372.2,79.5,370.3,79.1,368.7,78.3 M377.8,72.9
		c0.8-0.6,1.5-1.4,1.9-2.3c0.4-1,0.7-2.1,0.7-3.2c0-1.2-0.4-2.2-1.1-3c-0.7-0.7-1.7-1.1-3-1.1c-1.1,0-2.1,0.3-2.9,0.9
		c-0.8,0.6-1.5,1.4-1.9,2.3c-0.4,1-0.7,2.1-0.7,3.2c0,1.2,0.4,2.2,1.1,3c0.7,0.7,1.7,1.1,3,1.1C376,73.7,377,73.4,377.8,72.9"/>
</g>
<g>
	<polygon class="st2" points="162.4,145.5 154.7,145.5 162,108.8 169.7,108.8 	"/>
	<path class="st2" d="M182,137.9c1.1,1.1,2.6,1.6,4.5,1.6c2.8,0,5-1.2,6.5-3.6l5.7,3.6c-1.3,2-3,3.6-5.3,4.7
		c-2.2,1.1-4.7,1.7-7.4,1.7c-2.7,0-5.1-0.5-7.2-1.5c-2-1-3.6-2.4-4.7-4.2c-1.1-1.8-1.7-3.9-1.7-6.2c0-2.9,0.7-5.6,2.1-7.9
		c1.4-2.3,3.3-4.2,5.8-5.5c2.5-1.3,5.3-2,8.3-2c2.8,0,5.3,0.6,7.3,1.8c2.1,1.2,3.6,2.8,4.6,5l-6.5,3.3c-1.2-2.4-3.1-3.6-5.9-3.6
		c-1.5,0-2.9,0.4-4.1,1.1c-1.2,0.7-2.1,1.8-2.8,3.1c-0.7,1.3-1,2.8-1,4.5C180.3,135.4,180.9,136.8,182,137.9"/>
	<polygon class="st2" points="247.6,145.5 239.9,145.5 247.2,108.8 254.9,108.8 	"/>
	<path class="st2" d="M140.6,110.9h-7.9l-22.4,34.6h8.5l4.5-7.4h16.1l1.6,7.4h8L140.6,110.9z M127.1,132l8.1-13.3l2.9,13.3H127.1z"
		/>
	<path class="st2" d="M227.9,118.9l-0.7,3.6c-1.7-2.7-4.6-4-8.6-4c-2.7,0-5.2,0.7-7.4,2c-2.2,1.3-4,3.2-5.3,5.5c-1.3,2.4-2,5-2,7.9
		c0,2.4,0.5,4.6,1.6,6.3s2.4,3.2,4.2,4.1c1.7,1,3.7,1.4,5.7,1.4c3.2,0,5.9-1,8.2-3l-0.5,2.6h7.3l5.3-26.6H227.9z M224.5,135.3
		c-0.7,1.3-1.6,2.3-2.8,3.1c-1.2,0.7-2.5,1.1-4.1,1.1c-1.9,0-3.4-0.5-4.5-1.6c-1.1-1.1-1.6-2.5-1.6-4.3c0-1.7,0.3-3.2,1-4.5
		c0.7-1.3,1.6-2.3,2.8-3.1c1.2-0.7,2.5-1.1,4.1-1.1c1.9,0,3.4,0.5,4.5,1.6c1.1,1.1,1.6,2.5,1.6,4.3
		C225.5,132.5,225.2,134,224.5,135.3z"/>
	<path class="st2" d="M283.9,108.8l-2.7,13.6c-0.9-1.3-2-2.3-3.5-2.9c-1.5-0.7-3.2-1-5.1-1c-2.7,0-5.2,0.7-7.4,2
		c-2.2,1.3-4,3.2-5.3,5.5c-1.3,2.4-2,5-2,7.9c0,2.4,0.5,4.6,1.6,6.3c1,1.8,2.4,3.2,4.2,4.1c1.7,1,3.7,1.4,5.7,1.4
		c3.2,0,5.9-1,8.1-3.1l-0.5,2.7h7.3l7.3-36.6H283.9z M278.5,135.3c-0.7,1.3-1.6,2.3-2.8,3.1c-1.2,0.7-2.5,1.1-4.1,1.1
		c-1.9,0-3.4-0.5-4.5-1.6c-1.1-1.1-1.6-2.5-1.6-4.3c0-1.7,0.3-3.2,1-4.5c0.7-1.3,1.6-2.3,2.8-3.1c1.2-0.7,2.5-1.1,4.1-1.1
		c1.9,0,3.4,0.5,4.5,1.6c1.1,1.1,1.6,2.5,1.6,4.3C279.5,132.5,279.2,134,278.5,135.3z"/>
	<path class="st2" d="M322.7,130.2c0-2.3-0.5-4.4-1.6-6.2c-1-1.8-2.5-3.1-4.4-4.1c-1.9-1-4.1-1.4-6.7-1.4c-3,0-5.7,0.7-8.1,2
		c-2.4,1.3-4.2,3.2-5.6,5.5c-1.3,2.4-2,5-2,7.9c0,2.4,0.6,4.5,1.7,6.3c1.1,1.8,2.7,3.2,4.7,4.2c2.1,1,4.5,1.5,7.2,1.5
		c2.1,0,4.1-0.3,6-0.9c1.9-0.6,3.6-1.5,5.1-2.7l-3.2-5.1c-0.9,0.8-2,1.4-3.2,1.8c-1.2,0.4-2.5,0.6-3.9,0.6c-4.3,0-6.6-1.8-6.9-5.4
		h20.3C322.6,132.8,322.7,131.4,322.7,130.2z M302.5,129.8c0.5-1.7,1.4-3.1,2.7-4c1.3-1,2.8-1.5,4.6-1.5c1.8,0,3.2,0.5,4.3,1.5
		c1.1,1,1.6,2.3,1.6,4H302.5z"/>
</g>
</svg>
